/* XPM */
static char *diamond_64x64_xpm[] = {
"64 64 32 1",
"A c #a3e0e1",
"B c #62d7e0",
"C c #26d4df",
"D c #5a6574",
"E c #1a6c99",
"F c #cfe1de",
"G c #5897ac",
"H c #2eabcb",
"I c #8b9195",
"J c #2895b7",
"K c #677784",
"L c #5eaec5",
"M c #114678",
"N c #90b8c6",
"O c #043f79",
"P c #b6c0bf",
"Q c #fefefe",
"R c #10a6c7",
"S c #0e95bb",
"T c #0e88b6",
"U c #0c77ab",
"V c #084a86",
"W c #19c8d9",
"X c #0e9ac2",
"Y c #17b7d1",
"Z c #29d9e2",
"a c #91d6da",
"b c #0b558d",
"c c #d3f3eb",
"d c #0a69a4",
"e c #2f87ac",
"f c #4fb6cd",
"QQQQQQQQQQQQQQQQQQQQQQQQQQQQQQQQQQQQQQQQQQQQQQQQQQQQQQQQQQQQQQQQ",
"QQQQQQQQQQQQQQQQQQQQQQQQQQQQQQQQQQQQQQQQQQQQQQQQQQQQQQQQQQQQQQQQ",
"QQQQQQQQQQQQQQQQQQQQQQQQQQQQQQQQQQQQQQQQQQQQQQQQQQQQQQQQQQQQQQQQ",
"QQQQQQQQQQQQQQQQQQQQQQQQQQQQQQQQQQQQQQQQQQQQQQQQQQQQQQQQQQQQQQQQ",
"QQQQQQQQQQQQQQQQQQQQQQQQQQQQQQQQQQQQQQQQQQQQQQQQQQQQQQQQQQQQQQQQ",
"QQQQQQQQQQQQQQQQQQQQQQQQQQQQQQQQQQQQQQQQQQQQQQQQQQQQQQQQQQQQQQQQ",
"QQQQQQQQQQQQQQQQQQQQQQQQQQQQQQQQQQQQQQQQQQQQQQQQQQQQQQQQQQQQQQQQ",
"QQQQQQQQQQQQQQQQQQQQQQQQQQQQQQQQQQQQQQQQQQQQQQQQQQQQQQQQQQQQQQQQ",
"QQQQQQQQQQQQQQQQQQQQQQQQQQQQQQQQQQQQQQQQQQQQQQQQQQQQQQQQQQQQQQQQ",
"QQQQQQQQQQQQQQQQQQQQQQQQQQQQQQQQQQQQQQQQQQQQQQQQQQQQQQQQQQQQQQQQ",
"QQQQQQQQQQQQQQQQQQQQQQQQQQIDDDKGGGDDDDQQQQQQQQQQQQQQQQQQQQQQQQQQ",
"QQQQQQQQQQQQQQQQQQQQQQIDGFFFAAAAAAAAFAIGKKQQQQQQQQQQQQQQQQQQQQQQ",
"QQQQQQQQQQQQQQQQQFKKKFFcABBAAAABBBAABWCaAAQGKQFQQQQQQQQQQQQQQQQQ",
"QQQQQQQQQQQQQQQFDFAAcAccBBBBBBAAAABBBBBCAaBBBGGDQQQQQQQQQQQQQQQQ",
"QQQQQQQQQQQQQQQDIQBBBBAcccABBBBBBBCCBAAFcfRRTGAGDQQQQQQQQQQQQQQQ",
"QQQQQQQQQQQQQQFKBAQBAFAZZBBAFQcAAAcFABYRHAAALcGEEQQQQQQQQQQQQQQQ",
"QQQQQQQQQQQQQFDaZCAQQAACZCZZcACCCWBcBYRXHNAcQaEbeDQQQQQQQQQQQQQQ",
"QQQQQQQQQQQQQDABZBccAAFQQAAcABBBBBBacAAFcAAGfAJEbJDQQQQQQQQQQQQQ",
"QQQQQQQQQQQQDGBZZFcBACCCBAQQQQQQQQQQQQAGTSRRHGBEEUeDQQQQQQQQQQQQ",
"QQQQQQQQQQQQKBZZAcZCACWCCZFFCCWWCWWZAFSJRJRHSTGBEbeEQQQQQQQQQQQQ",
"QQQQQQQQQQFDaWZAcCCCCYCCZBQBCZZZZCCCCQLSSSXHTTdffbbJDQQQQQQQQQQQ",
"QQQQQQQQQQDaYCaQBWZZCBCZZaQWCCZZCCCCWAASSSRHSXUEBGbbJDQQQQQQQQQQ",
"QQQQQQQQQDNCWaQBWWWWWAZCCFaWCCCCWCCWWBcSXSBTXTdEEBeVdJGQQQQQQQQQ",
"QQQQQQQQQIAAAQBYWYYWZABHBQfWCCCWWCWWRRcLXSBUUdddEEfeHeQQQQQQQQQQ",
"QQQQQQQQQQKPQQAHYYHBYBACAFYWWWWWWYYYYRAATfGUUUdEEGfBEIQQQQQQQQQQ",
"QQQQQQQQQQQDIAFQFABYYRAYQAYCRYYYRCYRRRLcTBUUdeLfBLHeIQQQQQQQQQQQ",
"QQQQQQQQQQQQDfHGNFQFAfaAQHYRRRYRHGRRXXXcLLeLBBfebEJIQQQQQQQQQQQQ",
"QQQQQQQQQQQQQDLHXTGNFQQQQAAaAAAAaAaaaaaFABBfGbMVEJDQQQQQQQQQQQQQ",
"QQQQQQQQQQQQQQDBHXXSSeNFFFAaaAAaaaaaAAAAAeVMVVbEHDQQQQQQQQQQQQQQ",
"QQQQQQQQQQQQQQQDBXXXXRRGFUTTSSSSRSTTTUUBGbVVVbEHDQQQQQQQQQQQQQQQ",
"QQQQQQQQQQQQQQQQKBSXSSSUFGXYRRRYRRRXSSeBVbVbVbHDQQQQQQQQQQQQQQQQ",
"QQQQQQQQQQQQQQQQQKfSXXSTNAXRRRYRRRRSSUBGbbbMVHDQQQQQQQQQQQQQQQQQ",
"QQQQQQQQQQQQQQQQQQEHSTSTEAJRRRRRRXSXTeBbVVVVREQQQQQQQQQQQQQQQQQQ",
"QQQQQQQQQQQQQQQQQQIEHTUTUABXRXXRSSXTUfGVVVVXEQQQQQQQQQQQQQQQQQQQ",
"QQQQQQQQQQQQQQQQQQQQEHTUUeATSRSTSTTUUBEVVVSEIQQQQQQQQQQQQQQQQQQQ",
"QQQQQQQQQQQQQQQQQQQQQJTUUUaGXTTTTUUUGfVVVTTIQQQQQQQQQQQQQQQQQQQQ",
"QQQQQQQQQQQQQQQQQQQQQITTUUGAUTTUUUUEBEVVTSQQQQQQQQQQQQQQQQQQQQQQ",
"QQQQQQQQQQQQQQQQQQQQQQDeUEEaGUUddddefMVUSFQQQQQQQQQQQQQQQQQQQQQQ",
"QQQQQQQQQQQQQQQQQQQQQQQIeUdGBdddddbfeOESIQQQQQQQQQQQQQQQQQQQQQQQ",
"QQQQQQQQQQQQQQQQQQQQQQQQKedEBEddbbEfMESDQQQQQQQQQQQQQQQQQQQQQQQQ",
"QQQQQQQQQQQQQQQQQQQQQQQQQDTdGGEbVVHebXDQQQQQQQQQQQQQQQQQQQQQQQQQ",
"QQQQQQQQQQQQQQQQQQQQQQQQQQDTdBbVVbfbSDQQQQQQQQQQQQQQQQQQQQQQQQQQ",
"QQQQQQQQQQQQQQQQQQQQQQQQQQQDTHeVVeJXDQQQQQQQQQQQQQQQQQQQQQQQQQQQ",
"QQQQQQQQQQQQQQQQQQQQQQQQQQQQDJHVVHXDQQQQQQQQQQQQQQQQQQQQQQQQQQQQ",
"QQQQQQQQQQQQQQQQQQQQQQQQQQQQQDHUUHMQQQQQQQQQQQQQQQQQQQQQQQQQQQQQ",
"QQQQQQQQQQQQQQQQQQQQQQQQQQQQQQDJHDQQQQQQQQQQQQQQQQQQQQQQQQQQQQQQ",
"QQQQQQQQQQQQQQQQQQQQQQQQQQQQQQQDKQQQQQQQQQQQQQQQQQQQQQQQQQQQQQQQ",
"QQQQQQQQQQQQQQQQQQQQQQQQQQQQQQQQQQQQQQQQQQQQQQQQQQQQQQQQQQQQQQQQ",
"QQQQQQQQQQQQQQQQQQQQQQQQQQQQQQQQQQQQQQQQQQQQQQQQQQQQQQQQQQQQQQQQ",
"QQQQQQQQQQQQQQQQQQQQQQQQQQQQQQQQQQQQQQQQQQQQQQQQQQQQQQQQQQQQQQQQ",
"QQQQQQQQQQQQQQQQQQQQQQQQQQQQQQQQQQQQQQQQQQQQQQQQQQQQQQQQQQQQQQQQ",
"QQQQQQQQQQQQQQQQQQQQQQQQQQQQQQQQQQQQQQQQQQQQQQQQQQQQQQQQQQQQQQQQ",
"QQQQQQQQQQQQQQQQQQQQQQQQQQQQQQQQQQQQQQQQQQQQQQQQQQQQQQQQQQQQQQQQ",
"QQQQQQQQQQQQQQQQQQQQQQQQQQQQQQQQQQQQQQQQQQQQQQQQQQQQQQQQQQQQQQQQ",
"QQQQQQQQQQQQQQQQQQQQQQQQQQQQQQQQQQQQQQQQQQQQQQQQQQQQQQQQQQQQQQQQ",
"QQQQQQQQQQQQQQQQQQQQQQQQQQQQQQQQQQQQQQQQQQQQQQQQQQQQQQQQQQQQQQQQ",
"QQQQQQQQQQQQQQQQQQQQQQQQQQQQQQQQQQQQQQQQQQQQQQQQQQQQQQQQQQQQQQQQ",
"QQQQQQQQQQQQQQQQQQQQQQQQQQQQQQQQQQQQQQQQQQQQQQQQQQQQQQQQQQQQQQQQ",
"QQQQQQQQQQQQQQQQQQQQQQQQQQQQQQQQQQQQQQQQQQQQQQQQQQQQQQQQQQQQQQQQ",
"QQQQQQQQQQQQQQQQQQQQQQQQQQQQQQQQQQQQQQQQQQQQQQQQQQQQQQQQQQQQQQQQ",
"QQQQQQQQQQQQQQQQQQQQQQQQQQQQQQQQQQQQQQQQQQQQQQQQQQQQQQQQQQQQQQQQ",
"QQQQQQQQQQQQQQQQQQQQQQQQQQQQQQQQQQQQQQQQQQQQQQQQQQQQQQQQQQQQQQQQ",
"QQQQQQQQQQQQQQQQQQQQQQQQQQQQQQQQQQQQQQQQQQQQQQQQQQQQQQQQQQQQQQQQ",
"QQQQQQQQQQQQQQQQQQQQQQQQQQQQQQQQQQQQQQQQQQQQQQQQQQQQQQQQQQQQQQQQ",
};