/* XPM */
static char *_28cf0c6f2734e9af402559d0665adc13o4NvnXTbfzUqK0z[] = {
/* columns rows colors chars-per-pixel */
"66 64 254 2 ",
"   c #120F27",
".  c #0D142B",
"X  c #141325",
"o  c #14142B",
"O  c #19172B",
"+  c #0D1933",
"@  c #131C32",
"#  c #181A32",
"$  c #29182B",
"%  c #381A2D",
"&  c #281E33",
"*  c #3A1B32",
"=  c #0B2239",
"-  c #1A2438",
";  c #282839",
":  c #372C32",
">  c #382739",
",  c #622A1F",
"<  c #471D2D",
"1  c #541E32",
"2  c #4F2F2F",
"3  c #4A2238",
"4  c #58283A",
"5  c #6A392B",
"6  c #74352F",
"7  c #662A35",
"8  c #693637",
"9  c #5C4B35",
"0  c #764A27",
"q  c #6F4630",
"w  c #756937",
"e  c #152844",
"r  c #15314E",
"t  c #2A2C44",
"y  c #2F364D",
"u  c #38354A",
"i  c #4E3B4A",
"p  c #6E3644",
"a  c #18495B",
"s  c #304B5A",
"d  c #135165",
"f  c #1A5664",
"g  c #28566B",
"h  c #156876",
"j  c #167077",
"k  c #2C6772",
"l  c #474758",
"z  c #534D53",
"x  c #595358",
"c  c #6B4F4E",
"v  c #794844",
"b  c #746948",
"n  c #525766",
"m  c #635E68",
"M  c #57666D",
"N  c #6A656A",
"B  c #736E71",
"V  c #7B7679",
"C  c #8F391A",
"Z  c #A43D16",
"A  c #863932",
"S  c #AC3827",
"D  c #994518",
"F  c #98531F",
"G  c #A74917",
"H  c #AC4C1D",
"J  c #B65415",
"K  c #AC6C1B",
"L  c #864627",
"P  c #984A38",
"I  c #935235",
"U  c #AC4A25",
"Y  c #B24C24",
"T  c #BB4A27",
"R  c #B34E2A",
"E  c #A95227",
"W  c #B5522B",
"Q  c #B5562A",
"!  c #BA542D",
"~  c #BB5A2D",
"^  c #A84837",
"/  c #B34A39",
"(  c #A75939",
")  c #B55432",
"_  c #B95736",
"`  c #BD5A33",
"'  c #8C702F",
"]  c #AD6E31",
"[  c #B96537",
"{  c #C95B06",
"}  c #C2571A",
"|  c #CA6A0F",
" . c #DD7907",
".. c #D67813",
"X. c #E17901",
"o. c #C14E28",
"O. c #C1582B",
"+. c #C25D33",
"@. c #C35D39",
"#. c #C76337",
"$. c #CE693C",
"%. c #CE7234",
"&. c #953741",
"*. c #8E514C",
"=. c #9A5745",
"-. c #A65847",
";. c #B25448",
":. c #82685A",
">. c #986459",
",. c #AC6648",
"<. c #B9694A",
"1. c #A66B57",
"2. c #B96955",
"3. c #AB775B",
"4. c #B87351",
"5. c #936D65",
"6. c #8A7269",
"7. c #8C746F",
"8. c #967B74",
"9. c #A77363",
"0. c #BA7A65",
"q. c #C66A46",
"w. c #C77547",
"e. c #C7795B",
"r. c #D17152",
"t. c #E57858",
"y. c #CA7A66",
"u. c #E87B63",
"i. c #7B807A",
"p. c #A38D2C",
"a. c #D78D08",
"s. c #E38E0E",
"d. c #E69809",
"f. c #EDA606",
"g. c #F3B808",
"h. c #D18F34",
"j. c #DDA22F",
"k. c #F8C804",
"l. c #FAD907",
"z. c #EFC419",
"x. c #F9D918",
"c. c #FDE607",
"v. c #FAE318",
"b. c #F6D62C",
"n. c #F5E22A",
"m. c #B79551",
"M. c #ACA654",
"N. c #998279",
"B. c #AA8779",
"V. c #B88775",
"C. c #AF9170",
"Z. c #D29150",
"A. c #EB905A",
"S. c #D3AC4F",
"D. c #ECB548",
"F. c #CE8C6E",
"G. c #E68B66",
"H. c #EC9771",
"J. c #ECA36F",
"K. c #F7A575",
"L. c #F8B57B",
"P. c #B9C77B",
"I. c #D7D244",
"U. c #F6D352",
"Y. c #F7EC4C",
"T. c #F9D772",
"R. c #FDF07A",
"E. c #4E7685",
"W. c #7B7C87",
"Q. c #707889",
"!. c #857D88",
"~. c #837D91",
"^. c #518C94",
"/. c #7A888B",
"(. c #758A93",
"). c #749BA4",
"_. c #76A5A4",
"`. c #88868B",
"'. c #948B88",
"]. c #8B8A95",
"[. c #928E99",
"{. c #899498",
"}. c #979599",
"|. c #94939C",
" X c #9B9B9D",
".X c #A78C85",
"XX c #AB9489",
"oX c #B79888",
"OX c #8BA29F",
"+X c #B3A594",
"@X c #9695A1",
"#X c #9896A2",
"$X c #9699A6",
"%X c #9B9BA4",
"&X c #9E9DA9",
"*X c #A19DA7",
"=X c #B296AF",
"-X c #8BA8A5",
";X c #9CA5A7",
":X c #91B1B2",
">X c #A6A5AA",
",X c #A3A3AC",
"<X c #AAA9AD",
"1X c #B5ABA6",
"2X c #B6B2AB",
"3X c #ACACB3",
"4X c #ABABB6",
"5X c #B1ADB8",
"6X c #ABB4B5",
"7X c #B2B2B4",
"8X c #B3B3BB",
"9X c #B6B9BB",
"0X c #BAB9BD",
"qX c #D4B28F",
"wX c #E5A981",
"eX c #F7B787",
"rX c #C1BDBC",
"tX c #99C1BD",
"yX c #ABC9BB",
"uX c #F5C994",
"iX c #FDF888",
"pX c #CCC2B1",
"aX c #FED6A3",
"sX c #F8D7A7",
"dX c #FED9A5",
"fX c #EDD0B0",
"gX c #FAEBB2",
"hX c #95BFC2",
"jX c #B8BAC2",
"kX c #C1BFC4",
"lX c #B5CCCC",
"zX c #C3C2C5",
"xX c #C6C5C9",
"cX c #C8C7C8",
"vX c #CBCBCD",
"bX c #D3CBCB",
"nX c #C4CFD3",
"mX c #CECED1",
"MX c #D1D1D0",
"NX c #D2D2D4",
"BX c #D9D6D6",
"VX c #D6D6D9",
"CX c #DBDBDC",
"ZX c #EAD9CF",
"AX c #D9E8DE",
"SX c #F8EFCC",
"DX c #DEDEE2",
"FX c #E0DFE4",
"GX c #E3E3E5",
"HX c #E9E9EA",
"JX c #ECF0EB",
"KX c #F9F5EC",
"LX c #F8F9F6",
"PX c #FFFFFF",
/* pixels */
"PXPXPXPXPXPXPXPXPXPXPXPXPXPXPXPXPXPXPXPXPXPXPXPXPXPXPXPXPXPXPXPXPXPXPXPXPXPXPXPXPXPXPXPXPXPXPXPXPXPXPXPXPXPXPXPXPXPXPXPXPXPXPXPXPXPX",
"PXPXPXPXPXPXPXPXPXPXPXPXPXPXPXPXPXPXPXPXPXPXPXPXPXPXPXPXPXPXPXPXPXPXPXPXPXPXPXPXPXPXPXPXPXPXPXPXPXPXPXPXPXPXPXPXPXPXPXPXPXPXPXPXPXPX",
"PXPXPXPXPXPXPXPXPXPXPXPXPXPXPXPXPXPXPXPXPXPXPXPXLXHXCXBXCXBXBXBXNXBX9X X3X7X0XVXPXPXPXPXPXPXPXPXPXPXPXPXPXPXPXPXPXPXPXPXPXPXPXPXPXPX",
"PXPXPXPXPXPXPXPXPXPXPXPXPXPXPXPXPXPXPXPXJXHXCXCXGXGXCXVXNXNXNXmXNXVX|.7X5X4X5X8X3XjXHXPXPXPXPXPXPXPXPXPXPXPXPXPXPXPXPXPXPXPXPXPXPXPX",
"PXPXPXPXPXPXPXPXPXPXPXPXPXPXPXPXPXPXPXPXVXBXGXBXBXNXmXNXNXNXmXmXNXNX>X<X&X&X&X,X3X8X%X0XPXPXPXPXPXPXPXPXPXPXPXPXPXPXPXPXPXPXPXPXPXPX",
"PXPXPXPXPXPXPXPXPXPXPXPXPXPXPXPXPXHX0X9XcXGXBXmXNXmXmXNXNXNXNXNXNXNX3X,X&X&X&X&X,X&X&X XBXLXPXPXPXPXPXPXPXPXPXPXPXPXPXPXPXPXPXPXPXPX",
"PXPXPXPXPXPXPXPXPXPXPXPXPXPXPXPXVX<X8X3X7XGXvXVXmXNXNXmXNXNXNXNXmXNX%X&X%X%X%X%X%X&X%X|.BXCXBXLXPXPXPXPXPXPXPXPXPXPXPXPXPXPXPXPXPXPX",
"PXPXPXPXPXPXPXPXPXPXPXPXPXPXPXmX8X8X5X7X*XCXMXvXmXNXNXmXmXxXzXzXzXzX|.|.|.|.|.|.#X#X[.9XDXGXDXCXGXPXPXPXPXPXPXPXPXPXPXPXPXPXPXPXPXPX",
"PXPXPXPXPXPXPXPXPXPXPXPXPXPXmX3X5XjX7X7X%XkXBXNXvXvXvXvXrXV y ; ; t t ; ; : ; i [.}. XVXCXNXVXCXCXHXPXPXPXPXPXPXPXPXPXPXPXPXPXPXPXPX",
"PXPXPXPXPXPXPXPXPXPXPXPXPXvX>X8X>X>X&X,X&X3XvXmXcXvXxX1XN zXLXLXLXLXLXKXU.b.| Z , 2 }.BXNXvXBXNXCXBXHXPXPXPXPXPXPXPXPXPXPXPXPXPXPXPX",
"PXPXPXPXPXPXPXPXPXPXPXPXmX<X7X,X&X,X&X&X&X#XzXvXcXvXm F bXgXY.Y.n.n.x.x.g.v.d.x.x.s.q 2XvXvXNXNXNXBXNXHXPXPXPXPXPXPXPXPXPXPXPXPXPXPX",
"PXPXPXPXPXPXPXPXPXPXPXmX5X5X>X@X,X&X%X%X;X-X7XcXzXN 2 2 ; # @ @ M.n.l.x.R.b.SXSXh.{ { 5 2 7XvXmXNXNXNXNXLXPXPXPXPXPXPXPXPXPXPXPXPXPX",
"PXPXPXPXPXPXPXPXPXPXJX>X4X,X%X&X%X&X&X$X&X=X!.%XN.i 6.CXPXPXLX9Xe p.x.x.R.gXKXU.| { g.s.D $ 1XvXNXvXNXNXcXPXPXPXPXPXPXPXPXPXPXPXPXPX",
"PXPXPXPXPXPXPXPXPXPX3X#X@X#X%X%X#X%X#X*X{.V 7.8.z NXPX6Xk k (.yX:Xe w v.n.SXY...{ g.k.k. ...% 2XcXvXmXBXmX0X<XzXPXPXPXPXPXPXPXPXPXPX",
"PXPXPXPXPXPXPXPXPXDX|.%X#X%X&X@X%X@X,X`.V 6.1.z CXPX,XI } } ,./.tX-Xr : n.gXc.| { k.l.l.d. ...o rXcXcXcX0X|.0X,X9XPXPXPXPXPXPXPXPXPX",
"PXPXPXPXPXPXPXPXPXjX|.|.#X@X&X*X[.;X/.W.>.S x L DX7X,.fXHXfXd.4.(.-Xa 2 x.iXc.{ k.l.l.l.d.X.X.| $ zXxX7X3X8X3X,X%XPXPXPXPXPXPXPXPXPX",
"PXPXPXPXPXPXPXBXVXNXB [.#X|.%X@X*X(.V >.( <.z L GX;XK ZXPXKXsXh./.-Xa : K Y.c.J l.l.l.k.f.s.X...O rX4X3X7X4X,X4X&XVXPXPXPXPXPXPXPXPX",
"PXPXPXPXPXPXHXCXCXVXCX;X`.|.].{.~.W.>.T y.x ; > CX;X%.T.SXLXdXh./.-Xa ; 8 w w 2 9 9 z.k.g.d.X...O 1X7X5X3X&X%X&X*X>XPXPXPXPXPXPXPXPX",
"PXPXPXPXPXPXBXBXBXCXVXVXvX X|.!.Q.5.U <.z Z.S.c cX6XZ.z.T.aXU.S.OX-Xa & 7 <.Z.Z.<.=.' w q K a.a.D z <X<X&X&X&X&X%X%XHXPXPXPXPXPXPXPX",
"PXPXPXPXPXHXBXBXBXNXNXNXmXvX>XQ.i.R T 0.$ [ <.v {.yXpXC.p.p.m.+X:X(.s & 8 ( [ [ ( P v 4 4 I I 0 2 o 3X&X%X%X%X&X&X&XzXPXPXPXPXPXPXPX",
"PXPXPXPXPXCXBXBXNXmXMXNXNXNXxX4X*.Y ~ XX% P P v > /.tX-X(.(.OX:X(.g y $ 4 8 8 q L q v 8 7 6 8 3 3 3 m  X%X%X%X%X%X#X>XPXPXPXPXPXPXPX",
"PXPXPXPXPXBXCXNXNXmXmXNXVXvX9X1XS ~ ! .X% 6 8 4 0 L `.-X-X-X-X/.s z L L L L I 4 4 4 4 4 4 8 p 4 4 4 * z |.%X%X%X%X%X|.HXPXPXPXPXPXPX",
"PXPXPXPXJXBXBXmXmXmXmXvXmXNX7XB.G o.e.B.* 0 ' p.j.d.] q 5 5 5 5 5 F  .d.d.d.s.' 0 0 0 5 4 3 3 3 3 4 3 O |.%X#X#X#X#X}.0XPXPXPXPXPXPX",
"PXPXPXPXCXVXNXvXvXmXmXmXVXlX1X;.Q ~ V.V N.J.T.R.R.iXT.S.a.a.a.a.a.a.g.c.c.l.k.k.f.f.f.s.' 0 q q % 3 < O }.@X|.#X%X%X|.%XPXPXPXPXPXPX",
"PXPXPXPXmXvXmXvXvXvXvXvXvXjXoXU Y e.D SXKXKXKXKXKXKXKXgXv.x.x.l.l.l.l.l.l.l.l.l.l.l.l.g.g.d. . .L 5 5 2 '.#X#X|.|.%X#X|.PXPXPXPXPXPX",
"PXPXPXPXxXcXvXvXvXvXcXvXbX7XV.H W r.s. .| J J G G G G G G G D C C 6 C C Z D G G H G H J J | ...... . .J < '.}.].].].`.3XPXPXPXPXPXPX",
"PXPXPXDXxXxXxXxXxXxXxXvXmX7X1.T O.e.2 5 6 $ u i u u u ; O ; u l l i u $ r.O o O t u u u & # # & % D | | E > <XvXCXVXVXGXPXPXPXPXPXPX",
"PXPXPXDX0XxXzXxXxXxXmXxX5X6X-.Y #.w.$.'.; V V !.!.x ; =.;.p B '.`.B u i H.H.H.y.t !.`.m ; u u y ;   , % % rXDXDXVXmXNXNXPXPXPXPXPXPX",
"PXPXPXPXcX%X,X>X,X,X>X X@X{.;.W +.$.q.; B 7.V B n ; *.v >.>.x N n u c K.eX+ + y.x 7.N y u l u . i y X 1XNXCXVXNXNXNXNXmXPXPXPXPXPXPX",
"PXPXPXPXjX7X7X4X7X7X7X>X[././ W +.$.$.0.O u u t # -.ZX7Xt > & # o v J.sX# LXt i & O o - l i qXgXF.x l # cXBXmXmXNXNXNXmXPXPXPXPXPXPX",
"PXPXPXPX>X7X7X4X3X>X,X X[.`./ Q #.$.$.#.0.> o o 2.t.>.; @ 1.G.G.G.H.uXsX# l - ; H.G.c B n i y.G.dXz u # zXNXNXNXNXNXNXmXPXPXPXPXPXPX",
"PXPXPXPX7X0X4X&X&X&X&X%X%XW._ Q +.$.$.#.#.2.F.*.F.eXC.@ @ oXaXaXaXaXaXsX# @ @ # sXaX.X7.m p A ;.dXx # ,XBXmXNXmXmXmXNXmXPXPXPXPXPXPX",
"PXPXPXPX4X8X*X%X&X%X%X#X>X(.) ~ +.$.#.#.#.q.F.*.0.uXC.@ @ oXdXdXdXdXdXsX- @ @ @ sXdXB u t &./ ;.dXz }.jXBXvXNXmXNXvXvXvXPXPXPXPXPXPX",
"PXPXPXPX7X4X#X%X%X%X%X@X<X(.R _ +.$.#.#.q.F.qXy.0.uXC.@ @ oXdXdXdXdXdXsX- @ @ @ sXdXH.G.G.J.L.uX3..X2XjXBXvXmXvXmXNXvXxXPXPXPXPXPXPX",
"PXPXPXPX<X,X@X#X#X#X#X#X<X(.R _ +.$.#.e.x x V.F.F.fXfXqXqXuXdXdXaXdXdXaXqXqXqXqXdXdXL.K.L.eXuX6.1..X2X7XmXvXvXvXvXNXvXcXPXPXPXPXPXPX",
"PXPXPXPX&X#X|.#X#X#X}. X3XQ./ _ +.$.y.x l yXB <.*.bXSXaXaXaXaXdXaXdXdXaXaXaXdXdXdXuXL.3.:.:.:.5.<..X7X3XvXvXvXvXvXvXcXvXPXPXPXPXPXPX",
"PXPXPXPX#X#X|.|.|.|.|.}.4X/./ ) +.e.x CXAXtXl 3.1.}.qXuXaXaXaXdXdXdXdXdXdXdXeXeXeXK.3.i :.=.>.0.Y B.3X3XcXxXxXxXxXvXvXvXPXPXPXPXPXPX",
"PXPXPXPX%X@X%X@X[.|.@X X@XV / _ 4.z CXLXlXM 8.0.e.3.5.9.C.C.F.wXeXeXeXeXeXeXH.G.3.1.5.>.2.#.w.#.Y N.<X>XjXxXcXvXvXvXvXvXPXPXPXPXPXPX",
"PXPXPXPXvXW.`.|. X<X7X2X5X;X;.0.x ;XPXlXM >.w.q.#.#.>.c I =.>.0.-.,.2.2.e.,.-.=.* # c c 9.<.0.e.! 6.].].%X>X,X,X>X<X<X<XzXPXPXPXPXPX",
"PXPXPXPXCXDXDXBXGXVXvXbXmX9X<.1X. JXnX).@ ,.$.#.+.#.I >.+.y.'.B & 8 ;.;._ o 2 2 & 3 * % $ $ O B.<.6.~.].4X8X8X8X8X8X8X7X7X>XPXPXPXPX",
"PXPXPXPXNXCXHXCXBXBXVXMXmX9X9.: GXJXlXE.@ 1.$.#.$.q.=.5 2.XXV 6 P I t.t...& w.w.8 $ 3 P h.j.j.X +XN.].{.8X4X>X,X&X&X&X,X>X%XPXPXPXPX",
"PXPXPXPXBXBXBXBXVXBXBXMXmX9XXXo PXlX-Xy 9.<.$.+.#.+.+.=.8.B m.m.b M.T.U.k Z.L.: < C < 4 E ~ Q 8 X 8.].|.7X,X%X&X&X&X&X,X,X XPXPXPXPX",
"PXPXPXPXCXBXvXcXNXNXmXMXcX2X; @ AXlX).- B.4.q.#.#.$._ y.B ( [ A b I.v.n.k w.[ $ z.f.q 4 Q O.[ 6 X N.~.{.>X%X#X%X%X%X%X%X%X%XHXPXPXPX",
"PXPXPXPXBXBXvXNXmXNXvXbX9XX $ ; ).).E.@ +XoXF.q.#.<.V.+XV ] [ i d j j j r %.[ $ z.l.d.0 $ $ $ $ +X.X~.].&X%X&X&X#X%X#X@X*X&XxXPXPXPX",
"PXPXPXJXBXNXNXvXmXmXmXbX9XX gX- LXLXn 3 $ o oXF.F.F.c . o ( I s _.yXyXk k < [ < C A.A.q * 3 3 $ O 8.W.`.%X#X#X%X#X#X#X#X#X|.7XPXPXPX",
"PXPXPXCXCXvXNXvXvXvXvXbX9XX D.- LXAXs 3 Z.Z.9     . cXLXfX1.s lXSXb.b.b.* f 1 4 7 fXeXv 1 P ( 3 X 8.W.`.#X@X@X#X@X@X@X@X}.|.%XPXPXPX",
"PXPXPXCXmXcXvXvXcXcXvXbXjXX [ e JXAXs 1 ~ %.h.h.%.I pXuXG.=.f P.S.: w g.7 f @ X GXgXK.v 1 ( ,.4 X 5.Q.`.|.|.|.|.|.|.|.|.|.|.|.PXPXPX",
"PXPXPXDXzXmXxXcXcXcXvXbX9Xo $ y E.(.y 4 7 7 6 A ^ A qXwXP % + p.j.e b g.7 o KXKXgXdXK.v 4 P =.4 X 5.B W.|.|.|.|.|.|.|.@X,X*X<XPXPXPX",
"PXPXPXPX0XkXzXzXzXzXxXpXjX;XO @ lX).E.- X o o o % 1 qXwX=.% a m.z.v.x.d.1 . SXgXdXuXK.v 7 P =.* o .X@X].>X>X,X,X%X#X#X&X,X<XCXPXPXPX",
"PXPXPXxX<X3X7X4X3X3X4X<X&X{.B.O LXhX^.- B.~ #.+.x ;.G.G.-.* d a $ $ $ ; g r 2.K.K.K.v * * % $ O 1..XjXNXDXGXFXDXFXDXFXFXHXCXcXPXPXPX",
"PXPXNX3X8X4X,X,X,X,X,X X&X{.-.# LXlX).y ` ! #.+.+.x $ % % O d h f f f h h h e t.t.u.v o X o -.<.( oXjXmXDXGXFXFXDXFXFXDXCXCXNXPXPXPX",
"PXPXBX5X*X%X&X*X&X%X&X X&X/.>.; -XLX:Xg - ! #.+.+.` W +.` 7.f j f + + = h h h e @ O 9.4.<.2._ ` H oXjXmXDXDXBXCXBXBXNXvXNXNXxXPXPXPX",
"PXPXHX4X%X;X%X&X%X%X%X X$X/.^ 9.. :XJXE.- ~ +.+.` ` W ~ w.V (.tX).a l W.- :X_.^.a = >.<.[ #.~ ` Y XX7XNXDXBXNXNXmXmXmXmXmXNXmXPXPXPX",
"PXPXHX,X#X&X#X%X%X%X%X X$X/.^ -.t + 6XlXl .X` +.O.` W ) B e M ^.^.f u N - ^.^.k g f - 1.~ ` ` @.Y XX3XVXDXNXvXvXmXmXmXmXvXmXmXPXPXPX",
"PXPXHX@X@X#X@X@X@X@X@X}.&X/.^ ) 0.# + OX:Xs .X` ` ` Y _ _ V o @ - e r x 1X. # @ + + 9.q.` @.! @.H XX5XVXVXmXvXvXvXvXvXvXvXvXvXPXPXPX",
"PXPXHX|.@X|.|.|.|.|.@X}.&X/.^ W ~ 0.l . Q.).l ) P [ Y ` B $ ,.<.8 % x +X+XX A.,.1 % *.;.U @.W O.H XX3XvXvXvXcXcXcXcXcXcXxXcXcXPXPXPX",
"PXPXLX].|.#X|.|.|.}.#X*X{.V P R ` [ <.8.7 2 4 _ ( ` W [ b ( [ ^ A 8 c oXoX5 w.[ A 8 7 ,.( [ Q O.H B.<XxXzXzXxXzXcXxXkXjXkX7X<XPXPXPX",
"PXPXHX7X[.].|.*X%X|.`.'./.`.P R ` ! +.` ` W ~ ` W +.W ) #.+.! W ` #.` ! ` +.@.` +.! Q ` ) ~ ~ ~ Y 7.].<X0X0XjX9X3X3X<X>X*X<X>XPXPXPX",
"PXPXBXDXDXHXDXDXDXGXGXBXnXkX-.R ) +.+.~ ` W ~ +.+.! U +.+.! ` Q ! +.! ! ! ` +.+.` W W ! ` ` W +.U 6.~.;X7X5X7X7X8X8X8X8X5X5X#XLXPXPX",
"PXPXNXCXBXBXNXVXVXBXNXbXnX9X-.Y R _ _ _ ` W ~ ` ) ) W ~ ` ` ) E E ! ` ) W ) ) ` ! W W W W ` ) ) U 6.~.4X3X,X,X,X,X*X&X%X%X@X#X#XLXPX",
"PXPXNXNXNXvXvXmXmXvXvXzXzX0X=.Y W W ) ) W R W W W W R ! W ! Q U R W W R U R W W W R W W ) ) U W G 5.W.,X>X#X#X#X#X X}.#X#X X#X#X<XPX",
"PXPXcXcXxXcXvXvXvXvXvXbXjX7XI Y R W W W W R W ! ! W R W W ! ! Y R W W W R R W W W R R W W W R W G :.Q.*X@X@X@X@X|.[.].[.#X%X#X#X}.PX",
"PXPXzX7X3X<X<X<X<X3X7X7X4X1XP Z H H H H H H H H H H H H H H H G H H Y H H H H H H H H H U U H U S *.M [.[.[.`.!.W.V V W.W.W.W.W.}.PX",
"PXPXPXPXPXPXPXPXPXPXPXPXPXPXPXPXPXPXPXPXPXPXPXPXPXPXPXPXPXPXPXPXPXPXPXPXPXPXPXPXPXPXPXPXPXPXPXPXPXPXPXPXPXPXPXPXPXPXPXPXPXPXPXPXPXPX"
};
