/* XPM */
static char *miner_64x64_xpm[] = {
"64 64 32 1",
"A c #261c1a",
"B c #eae1db",
"C c #542919",
"D c #eed5a6",
"E c #a8a19b",
"F c #66595a",
"G c #966a5d",
"H c #d8ad98",
"I c #a4906b",
"J c #684d25",
"K c #945d22",
"L c #f4d85e",
"M c #d7a364",
"N c #314c53",
"O c #d8a023",
"P c #f4cf2a",
"Q c #50344c",
"R c #b58c21",
"S c #2f3447",
"T c #718c9a",
"U c #90728e",
"V c #6d7986",
"W c #b4cad2",
"X c #863d19",
"Y c #bbc59d",
"Z c #ce751c",
"a c #3a452e",
"b c #7a8762",
"c c #9cb4c4",
"d c #c77649",
"e c #cfb7c5",
"f c #fdfdfd",
"ffffffffffffffffffffffffffffffffffffffffffffffffffffffffffffffff",
"ffffffffffffffffffffffffffffffffffffffffffffffffffffffffffffffff",
"ffffffffffffffffffffffffffffffffffffffffffffffffffffffffffffffff",
"ffffffffffffffffffffffffffffffffffffffffffffffffffffffffffffffff",
"ffffffffffffffffffffffffffffffffffffffffffffffffffffffffffffffff",
"ffffffffffffffffffffffffffffffffffffffffffffffffffffffffffffffff",
"ffffffffffffffffffffffffffffffffffffffffffffffffffffffffffffffff",
"ffffffffffffffffffffffffffffffffffffffffffffffffffffffffffffffff",
"fffffffffffffffffffffffffffBBBfBBBBBBfffffffffffffffffffffffffff",
"fffffffffffffffffffBffffffBIAAAAACACCCBBfBffBfffffffffffffffffff",
"fffffffffffffffffffffBfffDFEBBBBDDDLKJCCHfffffffffffffffffffffff",
"ffffffffffffffffffffffffFFDBDDDDLPOLRLHMCBBfffffffffffffffffffff",
"fffffffffffffffffffffffGCJAAAAIDLLLLDDOKKCCDfBffffffffffffffffff",
"ffffffffffffffffffffffEFFBfffEAJLLLLDLKKORKCHfffffffffffffffffff",
"ffffffffffffffffffffffQBfHFFIDEAJLLDLRKOLMRIAHffffffffffffffffff",
"ffffffffffffffffffffBFBfEFFFFIEEACLLLKKPPOORKABfffffffffffffffff",
"ffffffffffffffffffffJJBEGDBDMIIEAJMLLKPPPPOOORAfffBfffBfffffffff",
"fffffffffffffffffffBJJBEGDBBDIIENARLLKPPPPOOZOABffffffffffffffff",
"ffffffffffffffffffBFCCBEIDBBDIbENACKKCJJMLMOZKCDfBffffffffffffff",
"fffffffffffffffffBFEHFBEIDDDDIEENSJGIGGKKKXZZdCFffffffffffffffff",
"fffffffffffffffffBAGGFEEHIIIIDETSACKGGKKJCCKKKCABfffffffffffffff",
"fffffffffffffffffEAGJCAEHEIIIEUFACCXKKJKJJCKCCQSVBffffffffffffff",
"ffffffffffffffffBHAJJCJJIIEHIGJCJJKKKCCCCCCCCCQAAFffffffffffffff",
"fffffffffffffffffECJGGIIIJJJCJJKROOOOKKKKCCCCCCCCABfffffffffffff",
"ffffffffffffffffeGIIDDDDDMRRRROROPPPPOOOOOKKKCCCCABfffffffffffff",
"fffffffffffffffBFBBBBBDDDDLLLLLLLLPPPLPLLOMMKIJCCCDBffBfffffffff",
"fffffffffffffffBIIKGFFKKKJJJJCCCJKCJKKKKJKKKRIIIIJCBffffffffffff",
"fffffffffffffffBCJJAFCCCCAACCQFCCCMCACCCCCCAACAJGGGABfffffffffff",
"ffffffffffffffffBGCGUUGGCGFCFEUGCXMHHICIEQQQQCAACACBffBfffffffff",
"fffffffffffffffffCGFUUQCFFGGFFGCCHHAAEJGFFQQQAQQAHBfffffffffffff",
"fffffffffffffffffBASSAAGBHCAAAAKHDAfAFAAAAQQDBHFCABfffffffffffff",
"ffffffffffffffffffBSAAGGGAAGEEMMDBAFSAEEFFFQGHDJCABfffffffffffff",
"fffffffffffffffffffBEFGHEAAEDDDDDDAAAABBEUFQGXDJAEffffffffffffff",
"fffffffffffBffffffffHKGDEAAIDDDDDDAAAABDGACFGGDJEfffffffffffffff",
"fffffffffffffffffffBHIHBIAAIDDDDDDAAAADDMIMHHDGBffffffffffffffff",
"fffffffffffffffffBFFDDDBBEHDDDDDDDHHHHDDMMHHDGYfffffffffffffffff",
"ffffffffffffffffBFFEIDEBBDBBDDDDDDDDDDDDHHFGGIBfffffffffffffffff",
"fffffffffffffBfBFBBEFBDEDDDDDDDDDDDDDHHHGCEHHfffffffffffffffffff",
"fffffffffffffffFBfBFEBBDIIIEHHHMMHHHHMGGEBBfBfBfffffffffffffffff",
"fffffffffffffBFEfWFEBfffDEEEEGGGdGGGGGCAGFDBBBffffffffffffffffff",
"ffffffffffBffEAfWEABfffffffBEGCCKGGACCCCCAAAAHffffffffffffffffff",
"ffffffffffffBAfBWNABfffffffDGJGKMMIAGICCCGHHHAEfffffffffffffffff",
"ffffffffffffBABBEFWfffffffBGEIFIDMJIHCCCCCKGGJABffffffffffffffff",
"fffffffffffBAAfBEAEBfffffBGGIJbYDDJIGCHMCCGGGCABffffffffffffffff",
"ffffffffffBAAAEEFAEBBBffBHGGFJaJJFAIGCMLMCCCCAHBffffffffffffffff",
"ffffffffffBABAffFAAAEBBBGAAGFJIYYFFAICKMMKACCAABffffffffffffffff",
"ffffffffffBAEAfBFAIIJAAADBDFFEDDLMAFACCDHGCGUCABffffffffffffffff",
"ffffffffffBAFAfBSAGGHEUGDDIFCDDAKMCCAABBHJCGGCABffffffffffffffff",
"ffffffffffBAANFVSNAACFFFHHJCAIEAJHCABfBDHKCGGCABffffffffffffffff",
"fffffffffffBAAWEVAAAAAACHHGAAEEDDEAADBDDHGCFGAABffffffffffffffff",
"ffffffffffffBAfETABfBfFGEEFAJaAAAAJCGHHHFAAAAABfffffffffffffffff",
"fffffffffffffAfWENfffffFACAAaNFNNNNFAEGEFAAABfffffffffffffffffff",
"ffffffffffffBSEfENAffffffBfTNFNAAAFFFAAAEBBBfBffffffffffffffffff",
"ffffffffffBffBAEBFAffffBffBFTWTNNVAcTTNABBffffBfffffffffffffffff",
"fffffffffBfffBSAEWNEffffffTANTVNFFATTNNNABffffffffffffffffffffff",
"fffffffffffffffAATENEffffffVAAASAFEAAAAABfffffffffffffffffffffff",
"ffffffffffffffffNAVEFfffffFAFFNAFcEAEFCAEfffffffffffffffffffffff",
"fffffffffffffffffEEEVfffffEEEEEEEBEGHEIGEBffffffffffffffffffffff",
"fffffffffffffffffffffffffffffBffffffffffffffffffffffffffffffffff",
"fffffffffffffffffffffffffffffBfffBffffffffffffffffffffffffffffff",
"fffffffffffffffffffffffBffffffffffffffffffffffffffffffffffffffff",
"ffffffffffffffffffffBfffBffffffffffBffffffffffffffffffffffffffff",
"ffffffffffffffffffffffffffffffffffffffffBfffffffffffffffffffffff",
"ffffffffffffffffffffffffffffffffffffffffffffffffffffffffffffffff",
};