/* XPM */
static char * wall_xpm[] = {
"64 64 284 2",
"  	c #9D9389",
". 	c #998F85",
"+ 	c #A1978D",
"@ 	c #948A80",
"# 	c #685E54",
"$ 	c #8C8278",
"% 	c #9A9086",
"& 	c #9C9288",
"* 	c #988E84",
"= 	c #A3998F",
"- 	c #8F857B",
"; 	c #A49A90",
"> 	c #91877D",
", 	c #72685E",
"' 	c #B8AEA4",
") 	c #AFA59B",
"! 	c #A99F95",
"~ 	c #AEA49A",
"{ 	c #A89E94",
"] 	c #AAA096",
"^ 	c #A69C92",
"/ 	c #A79D93",
"( 	c #9E948A",
"_ 	c #93897F",
": 	c #6B6157",
"< 	c #C8BEB4",
"[ 	c #B1A79D",
"} 	c #A69C93",
"| 	c #A99F96",
"1 	c #A0968D",
"2 	c #A49A91",
"3 	c #ADA39A",
"4 	c #9C9289",
"5 	c #A39990",
"6 	c #A2988F",
"7 	c #AAA097",
"8 	c #ACA299",
"9 	c #61574D",
"0 	c #A0968C",
"a 	c #9F958B",
"b 	c #9B9187",
"c 	c #978D83",
"d 	c #92887E",
"e 	c #958B81",
"f 	c #B4AAA0",
"g 	c #ABA197",
"h 	c #A59B91",
"i 	c #6C6258",
"j 	c #C6BCB2",
"k 	c #A2988E",
"l 	c #9A9087",
"m 	c #9D938A",
"n 	c #9B9188",
"o 	c #968C83",
"p 	c #A59B92",
"q 	c #A89E95",
"r 	c #978D84",
"s 	c #968C82",
"t 	c #665C52",
"u 	c #90867C",
"v 	c #3A3026",
"w 	c #5B5147",
"x 	c #82786E",
"y 	c #554B41",
"z 	c #B0A69C",
"A 	c #A1978E",
"B 	c #998F86",
"C 	c #AEA49B",
"D 	c #9F958C",
"E 	c #897F75",
"F 	c #695F55",
"G 	c #8D8379",
"H 	c #847A70",
"I 	c #7B7167",
"J 	c #786E64",
"K 	c #70665C",
"L 	c #675D53",
"M 	c #60564C",
"N 	c #51473D",
"O 	c #594F45",
"P 	c #4A4036",
"Q 	c #43392F",
"R 	c #4E443A",
"S 	c #776D63",
"T 	c #83796F",
"U 	c #857B71",
"V 	c #877D73",
"W 	c #52483E",
"X 	c #B5ABA1",
"Y 	c #ADA399",
"Z 	c #9E948B",
"` 	c #988E85",
" .	c #92887F",
"..	c #958B82",
"+.	c #574D43",
"@.	c #80766C",
"#.	c #6D6359",
"$.	c #655B51",
"%.	c #4C4238",
"&.	c #42382E",
"*.	c #4D4339",
"=.	c #756B61",
"-.	c #7D7369",
";.	c #73695F",
">.	c #71675D",
",.	c #6A6056",
"'.	c #645A50",
").	c #4F453B",
"!.	c #ACA298",
"~.	c #938980",
"{.	c #6F655B",
"].	c #3E342A",
"^.	c #5E544A",
"/.	c #5F554B",
"(.	c #5D5349",
"_.	c #63594F",
":.	c #5C5248",
"<.	c #BBB1A7",
"[.	c #BDB3A9",
"}.	c #B3A99F",
"|.	c #BFB5AB",
"1.	c #BAB0A6",
"2.	c #B6ACA2",
"3.	c #8E847A",
"4.	c #7F756B",
"5.	c #392F25",
"6.	c #544A40",
"7.	c #897F76",
"8.	c #8B8178",
"9.	c #8D837A",
"0.	c #877D74",
"a.	c #847A71",
"b.	c #867C73",
"c.	c #8E847B",
"d.	c #91877E",
"e.	c #887E75",
"f.	c #7E746B",
"g.	c #7C7269",
"h.	c #81776E",
"i.	c #BEB4AA",
"j.	c #B2A89E",
"k.	c #B7ADA3",
"l.	c #72685F",
"m.	c #6E645B",
"n.	c #6C6259",
"o.	c #6D635A",
"p.	c #6B6158",
"q.	c #665C53",
"r.	c #62584F",
"s.	c #544A41",
"t.	c #584E45",
"u.	c #5C5249",
"v.	c #5E544B",
"w.	c #695F56",
"x.	c #70665D",
"y.	c #5A5046",
"z.	c #584E44",
"A.	c #71675E",
"B.	c #786E65",
"C.	c #7B7168",
"D.	c #796F66",
"E.	c #645A51",
"F.	c #4D433A",
"G.	c #50463D",
"H.	c #7A7067",
"I.	c #B4AAA1",
"J.	c #867C72",
"K.	c #62584E",
"L.	c #857B72",
"M.	c #574D44",
"N.	c #948A81",
"O.	c #8B8177",
"P.	c #887E74",
"Q.	c #372D23",
"R.	c #7D736A",
"S.	c #5A5047",
"T.	c #8A8076",
"U.	c #746A60",
"V.	c #796F65",
"W.	c #7E746A",
"X.	c #81776D",
"Y.	c #90867D",
"Z.	c #33291F",
"`.	c #7F756C",
" +	c #5D534A",
".+	c #CCC2B8",
"++	c #8F857C",
"@+	c #61574E",
"#+	c #40362C",
"$+	c #564C42",
"%+	c #80766D",
"&+	c #756B62",
"*+	c #4C4239",
"=+	c #8C8279",
"-+	c #3A3027",
";+	c #5F554C",
">+	c #4F453C",
",+	c #3E342B",
"'+	c #C3B9AF",
")+	c #837970",
"!+	c #4E443B",
"~+	c #483E35",
"{+	c #ABA198",
"]+	c #60564D",
"^+	c #B6ACA3",
"/+	c #AFA59C",
"(+	c #B9AFA6",
"_+	c #B1A79E",
":+	c #82786F",
"<+	c #6A6057",
"[+	c #473D33",
"}+	c #635950",
"|+	c #4B4138",
"1+	c #C5BBB2",
"2+	c #B3A9A0",
"3+	c #B8AEA5",
"4+	c #6F655C",
"5+	c #766C63",
"6+	c #3F352B",
"7+	c #C4BAB0",
"8+	c #655B52",
"9+	c #5B5148",
"0+	c #675D54",
"a+	c #534940",
"b+	c #40362D",
"c+	c #B2A89F",
"d+	c #BBB1A8",
"e+	c #A79D94",
"f+	c #7C7268",
"g+	c #6E645A",
"h+	c #4B4137",
"i+	c #493F36",
"j+	c #685E55",
"k+	c #7A7066",
"l+	c #3C3228",
"m+	c #382E24",
"n+	c #564C43",
"o+	c #4A4037",
"p+	c #443A30",
"q+	c #BCB2A8",
"r+	c #746A61",
"s+	c #B9AFA5",
"t+	c #3F352C",
"u+	c #453B32",
"v+	c #8A8077",
"w+	c #736960",
"x+	c #362C23",
"y+	c #463C33",
"z+	c #53493F",
"A+	c #B0A69D",
"B+	c #554B42",
"C+	c #372D24",
"D+	c #3C3229",
"E+	c #392F26",
"F+	c #3B3128",
"G+	c #C0B6AC",
"H+	c #3B3127",
"I+	c #594F46",
"J+	c #776D64",
"K+	c #B7ADA4",
"L+	c #B5ABA2",
"M+	c #50463C",
"N+	c #766C62",
"O+	c #453B31",
"P+	c #463C32",
"Q+	c #362C22",
"R+	c #352B21",
"S+	c #41372D",
"T+	c #483E34",
"U+	c #3D3329",
"V+	c #52483F",
"W+	c #493F35",
"X+	c #342A20",
"Y+	c #BEB4AB",
"Z+	c #30261C",
"`+	c #2F251B",
" @	c #51473E",
".@	c #443A31",
"+@	c #2B2117",
"@@	c #473D34",
"#@	c #CAC0B6",
"$@	c #C1B7AD",
"%@	c #C9BFB5",
"&@	c #CBC1B7",
"  . + @ # $ % % & % % & & % . . * = - . ; . & > , & ' ) = ! ~ { { ] ! ^ / { ; ( _ # : < ] [ ) = } | } 1 2 3 | 4 3 5 6 7 8 5 4 4 ",
"+ + . @ 9 % 0 / + 0 ( a ( b . c d + e b & > % c , . f g . * 0 h a + + 0 = / h a a i h j 0 a k ! l m n o l 2 p m o 2 q m r 4 m o ",
". = s % t ; . . % . * * . . c @ + / & & * u c @ v w x . ( ( ( ( = = 0 ( a k ( c . y ' z = ! h / 1 5 A B l 6 2 A 2 C C 5 D 5 2 m ",
"s & > E F ( c e . % . .   0 ( . G H I J K L M N O P Q R M i , S x T T U G @ _ $ V W X Y / ~ ; _ 4 A 1 n l Z A 1 | `  .m A B ..n ",
"> H J +.+.@._ . e u U S #.$.O %.&.*.=.d % h ! = ^ @ G b ; . V -.;.>.#.,.: i '.O ).N & X ^ !.z ( ..l Z Z D 6 5 6 } o ~.D A o o A ",
"T {.t v ].Q %.).^.M /.(._.: # ^.&.:.+ <.Y !.!.g [.) / g Y !.}.|.1.2.~ / =   3.4.5.6.:   b + k $ 7.8.9.9.9.8.0.a.b.c.d.e.f.g.h.b.",
"F ,.-.x * = = [ = = b d > @ $ -.+.t ] i.g z [ [ ; { j.<.' !./ ! !.!.Y ) 2.k.!.( ^.#.+.;.4.I i :.l.m.n.o.m.p.q.r.s.t.u.v.r.w.m.x.",
"/ / / ) / / 3.0   a & c   ^ k @ K $.@ k . Y ) ] 2.~ ! ] Y !.] ! k k 0 k ^ = e U +.F y.z.,.9 /., l.o.p.A.B.C.C.D.E.F.G.H.D q 8 I.",
"* % ( ; / = . u b 0 k ( % % . c J.9 K.% { @ & a   b b   0 0 & . ; a a b c % G , 6.E c k = % ^ a D 4 B ` ` ` 4 1 L.M.r } p m N.5 ",
"= = = k + + k ; .     % . b b * > 4.# O.j.] +   0 b e @ *   + k c - P.I #.L y Q._.e b ( k % 0 % l B l m 1 Z l ` R.S.n D m Z ..4 ",
"s b a ( % c c % ; ; + b . % c d =   L y.I T T.s J U.K {.;.V.W.X.=.;.V.-.@.T.V U.P V b ( =     b 6 1 Z m 4 ` Y.7.l.M.B o o 5 4 4 ",
"& ( 0 ( b . . % k 0 . _ @ . b * E T.M ].Z.].: T.] !.z f 2.2.X }.!./ { / k ; 0 u 9 _ h & * @ c a l 4 4 l B n m 4 `. +l ` l } Z m ",
"+ & s _ s %   ( - c   & s T.V.,.#., T P.$.K X .+( = ! Y ~ ] ^ = h + / ] { ~ [ / $.V.u @ s c $ T 8...4 ` ~.N.r r ++@+B m Z D N.` ",
"e e c & 0 a c u a @ 4.,.'.>.T - ( - = ~ J {.( * { ] !.!.] ! ! ] }.!.!.! ( &   e : #+].Q P '.$.$+n.%+ .o o r N.c.&+*+=+r B B Y.l ",
". & 0 k 0 * 3.V (.K H - @ * . * a _ * = T.G }.!.h ^ h = + + ; { ) { ] ] 0 0 ; + V O J.Y ( s ;.Q -+F.;+w.A.&+o.;+>+,+d.l ` D n 2 ",
"a c E J #.i ;.I 3.* a b @ @ . & . k % c u > ^ ; ^ ! !.!.] ! ] !.;   + k . % + + 0 t   '+^ z ' ^ 7 8 } B Y.)+w.!+~+!+{+7 1 | } | ",
",.9 #.i J.0 >   . * . b     % c + 0 & G J.% Y / { = h k . ( h + 4 D B Z l r D 5 m ]+2 7 q ^+I./+/+(+q I.^+| _+1 :+<+r } {+~.d.c.",
"S T & a & . G u b a k a % * b a a * + I [+, z = & . 0 =   ( a c /+_+(+(+^+Z Y.C.}+|+Z 1+^+C C 2+3 /+/+7 C 3 7 3+C m.4+l.5+@+;+@+",
". c _ % c . { + b b % * c c . b b e 3.t 6+,.}.< 7+X Y h . s s G 8+9+0+G.a+~+;+u.s.b+n./+8 q q q c+/+d+q q e+Y.c+m >+~+]+`.0. .4 ",
"^ ; * { k c ^ d a * @ * + h + % u . f+F {.6.[+K T.J g+# :.+.6.h+i+]+_+_+I. .4 Y...R.j+4 Z 2 p o ` m 5 Z | A 7.1 1 <+o.)+..D Z Z ",
"V * s + u k+u u G E H @.I ;.F 9 # '.l+m+K.M 9 c >.K U k ) X X Y 4+j+8 6 6 c.2 e+` ..q.f.)+r p r Z p ++o 5 ..++0.n+o+@+4+o.h.:+%+",
":.L (.^.y.p+p+).).M ;.-.4.H - . _ c = ] !.}.X ] ~ h ~ q+' ) { 0 ..j+l D p n 4 r 1 l  +t.l.d.6 .. .d.o.4+r+5+8.&+o.m.g.x.F.]+@+r.",
"3.c d 3.. =.].p+h Y 2.k.j.) [ 2.[ z s+f h ) s+g X ^ / ) g ] }.k.3 E.:+r r ` 8.8.d.0.M.t+@+p.o.j+w.;+M.|+u+o.o v+5 Z p Z D.++Y.o ",
"e ^ ^ e ^ d # @ }.!./ !.X ' [ ! }.s+g ] <.!.0 k.[ ; { z ! ; g ) 3 9+A.b.w+A. +0+o.b.N.7.q r B 8 r )+N.o.>+b.q e+5 ..4 | c.6 n 6 ",
"e & ( k & s {.k Y ! ! ) [ ) ~ z !.Y & % ) [ h ! h !.j.) / ; ! z 7 C.x+o+>+p.9.l A 6 B ` o ..D A D Z 1 c.y+8.5 B D m 4 4 Z D Z m ",
"h e s @ * s # Y }.X 2.2.X f }.j./ Y + * ( b s k   * e . a = 0 & ` a.u.l.9.D e+n Y.l Z 5 6 Z m r 1 Z 1 Y.F.v+n d.n 4 4 l B l 4 Z ",
"$ 3./ + @ f+z+!.z k.2.!./ ] g { a k b b h = . . + = h = ( b b   q :+r.:+A+B N.Z d.` 4 B B D D 4 l ..l c.M.Y.p 5 l 4 m 4 l l m 1 ",
"g   d @ k x %.F P.& ] ^ ; / = * . b . b 0 + a 0 s b a a % s e e H.@+F.v.Z  .o | B l Z ~. .Z m 1 A r n 8.t.h.` A B l n n n B ` r ",
"G % V -.V.+.N O g+O.= ! ! !   G *   ; a _ d & ; Y ( d _ % @ -.L ~+n.4+!+e.8 3 ` Z n | D n 1  .o l c. .R.i+B+]+p.~. .~.o l B N.++",
"g+K.(.K @ c @ K P $+/.^.9 # i F W.W.$ * e d O.f+L M O O w 6.p+Q.C+S.}+t+9+:+f.4+0.&+:+5+4+x.;+x.v.a+E.v.D+E+C+b+F+b+*+u.m.g.)+b.",
"'.N c h z G+'+[.'+f % f+M %.#+v H+H+%.$+h+h+R p+%.z.$.L '.$.>.-.5+x.H.R.`.~.=+1 g.9+8+I+G.F.F+I+7.J+9.` N. .9.N.Z n N.b.5+n.w.p.",
"* 6.) = b f = ~ k k ! [ z ; * d H - ( x P *.V j.h ^ ; ( c s % 0 8 p A+2+m 8  .r } b.4 l Y.:+r.`.K+` 2 A+3+K+A+L+8 _+c+q 4 n | K+",
"F W Y q+! + ] f { { ] ] / ; ; h + ! { c M+S Y k . a   @ e + ^ k ( > ; a ( + 3.& . h . c c = N+N+' }.Y ! ] ~ ) ~ ] ! ! !.[ [ !./ ",
"b O+W.[.Y 2.z ] = ^ h k ; g !.{ { ] ]   O {.j.+ * ( 0 b % a k 0 a k ( a b * + ^ . ; a + 0 ( ,.# Y X k.j.z j.] & X j.) ) [ [ ~ ] ",
"{ 6.@.7+& f ) a ; ] ] h h / a d = * > T [+*.~ + & ( 0 a & b % . d = > s u J.+ b c % e * ( & N+@.}.[ ) ~ Y g ] ] Y ! h k 0 a   & ",
"@ :.V G+( . *   0 a 0 k k a   & = b a e ^.h+) h { = 0 0 a & . * s h ( a % e = b +   . s & > , @.G+!.h ) g % % ] a a a ( & & &   ",
"H O ;.k i.a . z + c * k 0 e % ] c c k . F %.&   0 % e _ s * e d c e k * c 0 s & O.G s _ & H /.L !.h h ~ ~ + * * s . & b c _ d d ",
"P w t w u . ( % [.2.' [.~ 3.-.W.d x g+M+Z.H+V j.b k = a a ; + % b 3.k e > b 3.k j.~ !.G E t &.p+'.#.{.#.f+> d T u d > P.V.i t '.",
"v #.g+O+P i I $.f+V.U.K ,.M N p++.=.* = . T.L , $ { s+~ = k & u #.: =.=.t y y F w ^.L ).# L t =.^.z+P+p+W 9 '.(.^.9 /.y O+5.Q+Q.",
"* c E $ K.9 _.9 $+N 6+R+z+V h ; / X q+f z f k+d 6.X.  G =.i K.W g+W.W.G , Q M+w , 4._ 4.k { g k.7+c W.V 4.O S+O+T T.- 3.E E > . ",
". ( + ( c @ *   @ @ & T $+~ ) j.) ] ) [ g !.[ !.+ L O ;.X.s k d c !.  % -.g+@ ! / O.h ~ ] j./ / g ) ( h ) U.Q :.c . b b % % b   ",
"& & b s d d *   _ e . f+6.~ f [ 2.! h h = Y k.f Y W.4.0 k &   _ % = * =.{.> !.<.2.& ~ X z k.z j.j.] k.|.- ).$+G 0 + k + a   ( a ",
"(   & b b   0 + &   a W.y = !.^ /   ( = = / / b e K V.% s E d b _ E - S > ' ~ }.f a / ] ^ ] ^ ! k.( !.; /.P W./ % &   & % * * . ",
"* * % a = = 0 & b % h _ : a [ f % s a { / { h % k+$.F S i M t g+'.p+R g+[ ' ; !.] a 0 k + + a + + & % , [+F . > e c % b . * . % ",
"s e e * & & c _   e k c _.#.-.P.K F # 9 W M+6.N (.t J J.$ @ . @ - K.S+,.i.z X <.* % s b a % % b G ; > (.O O.+ O.u _ s c s e e e ",
"+   . * % b % * + s ( > +.P (.$., N+U 3.$ @ = ^ a g ] (   h k c   X.[+P   c ! & . ^ & + / & & b % @ '.P+#.  ^ = @ c b   & b % b ",
"_ @ c %     b . s _   > #.U.* c + + g Y + b . > % + . O.3.c & ( - J.t h++ Y z ( ^ ' = + k 3.O.V U ,.#+m+:.V.X.E W.T E 3.u d _ @ ",
"i S J.d c @ G P.s * b H ,.x Y ( a c * * _ * a b @ (   b   * @ &   $ 4.*.* + O.U > = H V.U.z.W %.p+T+M+*.U+Q.U+#+m+6+T+N +.:.M _.",
"7.7.&+E+F.*+V+}+m.)+c.f.n.&+o 2+d.~.1 r N.4 r m ..` n m l ..c.7.@ O.x %.M t 6.M+l+#+h+y.L ;.x 3.b ( b u - i &.+.U.> c d . @ P.$ ",
"6 Z Y. +M.7.5+9.b.w+I+i+>+ +@+u.4+v.8+j+n.o.}+m.5+w+m.<+j+j+<+p.w (.9 5.]./.;.P.V O.e 0 ; ; / !.; a @ u ] + {.F u ^ h   ; k .   ",
"4 ` B f.v.(+o 3 _+} ` ~.B Z r =+C.x.o.v.]+B.0.m ++v+)+R.C.f.:+b.x {.^.W+M+@ !.^ ( a = { ^ a & ( + = & u + b ,.y.O.& & e . b c % ",
"m l m r @+} c.o c.` A 1 l r B m 6 2  .;+@+..p 1 5 6 A D m 4 4 4 s . G i &.P.[ ^   % * % . s c b s % 0 & ; . {.'.$ b 0 % .   a 0 ",
"l ` ` p B.=+6 D } 6 4 ` o o l Z n D ++r.4+p 5 e.n 4 m m 4 l ` o _ 0 e g+X+N+] * h 0 ( 0 + 0 = / ; _ c & + G 9 +.J.- @ G J.G * . ",
"0.a.`.Y.r+m.Z B ` o ` 4 m n n m N.` N.A.4+ .1 } A D m n n n m Z + ( G , W+=.Y &   % .   ( b * . h @ % @ @.L z+/.6.+.9 $.F @.@ d ",
"@+ +t.I+t+F+F.y+]+p.f.c.++7.e.9.~...9.@+n+D.d.5 D m n B B l 4 Z d . = > +.P+- ~ 0 % c % & b % b * e = - K {.H { ) 0 . $ J K /.U+",
"n m 7 7 r C m ` @+v.}+A.C.H.5+&+j+j+S.D+9+A q d.r ` B l l B r o + u b k -.p+-.a { ( s c & + { ~ Y 0 b I L @.  2.2.! z s+f ) > ^.",
"4 Y+C p 2+| A A ..C.Z 6 m A 8.Z ~.m x.b+u.N.1  .5  .n 1 r ..r 1 k c e & V (.M G d W./ Y . 0 u k+O.W.K /.$+#.-   $ E _ % ; .   $+",
"4+h.H.b.l B m n %+x.o 4 4 2 ++n o 9.0+y+S.b.B o Y.9.l D l ` ~.d.% > d a > M &.%.K.=.d T.V T w P +.P+m+Z+`+6+%.T+K.9 $.L , #.-.z+",
"r+A.w.x.@+ @]+8+.@F+S.u. +o.;+}+l.}+t.a+s.u.v.a+s.]+q.}+r.p.A.o.S =.K : M %.N #.t $.6++@{.! { ' s $ V T -.4.-.g+=.V.N+K N+g+-., ",
" .7.9.c.;+@@4+a.o c.m N. .} 6 1 ` ++n 5 ..8.`.0+t+B.l p } 1 N.R.:.i K # w R N '.U.,.).^.{ #@j./ q+$@.+%@1.2.2.~ j.<.' f 2.] ! !.",
"A n 7 _+%+o.4 C 6 4 A o d.1 Z ..A 4 2 2 B D 1 v+n+n 3 e+p e+L+8 % ^ / ^ g ; _ O./.].S+;.. ! }.) + / f X g ~ }.~ 0 ^ ^ / ] ] ( ; ",
"q 5 7 C =+:+Z o D m A D l D 4 =+n Z D o N.6 } r o+A ^+L+_+p {+Z ; !.^   = ! !.j.( 9 K G+&@s+[.h g ; ; ^ ^ ~ ) k z ] { / k 2.{ ! ",
"D 2 A l 0.Y.7 l n ` n 6 D m 4 =+B 6 D B 1 5 n ..@+3 q m Z r 3 {++ }.k.Y h & b ; ) '.9 2.%@}.2.  ~ h = = k g !.0 q+!.] = u }.{ 0 ",
"o e+4 h.n.%+p Z A l r A D 4 A ..4 A o N.5 A ` 1  +3 7 7 _+5 3 6 ~ [ ! ^ ~ !.= k b # $.) |.( = &   + g Y ^ ) q+q+X ; ! k J.}.! % "};
