/* XPM */
static char * background_xpm[] = {
"64 64 57 1",
" 	c #755338",
".	c #765338",
"+	c #745238",
"@	c #704F35",
"#	c #684931",
"$	c #5F422D",
"%	c #593D2A",
"&	c #765438",
"*	c #704F36",
"=	c #694A32",
"-	c #60422D",
";	c #765439",
">	c #694932",
",	c #745338",
"'	c #735237",
")	c #6F4E35",
"!	c #684831",
"~	c #715036",
"{	c #725136",
"]	c #745237",
"^	c #6B4B33",
"/	c #65462F",
"(	c #5D402C",
"_	c #583C29",
":	c #654630",
"<	c #6D4D34",
"[	c #705035",
"}	c #735136",
"|	c #714F36",
"1	c #6A4A33",
"2	c #654730",
"3	c #553A28",
"4	c #60432D",
"5	c #63452F",
"6	c #6E4D34",
"7	c #684932",
"8	c #5E412C",
"9	c #553B28",
"0	c #533927",
"a	c #5A3E2A",
"b	c #593D29",
"c	c #6C4C33",
"d	c #6B4C33",
"e	c #593E2A",
"f	c #563A28",
"g	c #543927",
"h	c #533926",
"i	c #563B28",
"j	c #583D2A",
"k	c #573C29",
"l	c #583D29",
"m	c #61432D",
"n	c #60422E",
"o	c #694A31",
"p	c #64462F",
"q	c #553927",
"r	c #533826",
"                                           ..+@#$%%$#@+..       ",
"                                           ..+@#$%%$#@+..       ",
"                                           &&+@#$%%$#@+&&       ",
"..............        ....                 &&+*=-%%-=*+;;&......",
"..............        ....                 &&+*>-%%->*+;;&......",
"+++++++++++++++      ++++++,                 ')!$%%$!)'+++++++++",
"@@@@@@@@@@@@@@~{']]'{~@@@@~{',            ,]{@^/(__(:^)**@@@@@@@",
"#############=^<[}}[<^=##=^<*'            '|<12$%33%$:!>=#######",
"$$$$$$$$$$$$$45>6~~6>54$$457<{,          ,{6758%9009a($--$$$$$$$",
"%%%%%%%%%%%bba82c@@c28a__a8:^~+          +~d:8efghhgi_j%%%%%%%%%",
"%%%%%%%%%%%bba82c@@c28a__a8:^~+          +~^:8a_k___lb%%%%%%%%%%",
"$$$$$$$$$$$$$45>6~~6>54$$457<{,          ,{<75m$$-n--$$$$$$$$$$$",
"#############=^<[}}[<^=##=^<*'            '*<^=#oooooo##########",
"@@@@@@@@@@@@@@~{']]'{~@@@@~{',            ,'{~@@@@@@@@@@@@@@@@@@",
"+++++++++++++++      ++++++,                ,+++++++++++++++++++",
"..............        ....                    ..................",
"..............        ....                    ..................",
"                                                                ",
"                                                                ",
"                                                                ",
"                                                                ",
"                    ,++,                                        ",
"                  ,'{~~{',                                      ",
"..............&&& ]|6cc6|] &&.        ....                    ..",
"..............&&& {<7::7<{ &&&        ....                    ..",
"+++++++++++++++++'@158851@'++++      ++++++,                ,+++",
"@@@@@@@@@@@@@@@**)^28bb82^)***~{']]'{~@@@@~{',            ,'{~@@",
"##oooooooo#####=>!p$%qq%$p!>==^<[}}[<^=##=^<*'            '*<^=#",
"$$$------$$$$$$--$(%3rr3%($$-m5>6~~6>54$$457<{,          ,{<754$",
"%%bl____lb%%%%%%%j_ighhgi_%%%a82c@@c28a__a8:^~+          +~^:8ab",
"%j_ighhgi_j%%%%%%%bl____lb%%%a82c@@c28a__a8:^~+          +~^:8ab",
"-$(%3rr3%($--$$$$$$------$$$$45>6~~6>54$$457<{,          ,{<754$",
">!p$%qq%$p!>=#####oooooooo###=^<[}}[<^=##=^<*'            '*<^=#",
"*)^28bb82^)**@@@@@@@@@@@@@@@@@~{']]'{~@@@@~{',            ,'{~@@",
"+'@158851@'++++++++++++++++++++      ++++++,                ,+++",
"& {<7::7<{ &&&................        ....                    ..",
"& ]|6cc6|] &&&................        ....                    ..",
"  ,'{~~{',                                                      ",
"    ,++,                                                        ",
"                                                                ",
"                                                                ",
"                                                                ",
"                                                                ",
"..........                ......................................",
"..........                ......................................",
"+++++++++++,            ,+++++++++++++++++++++++++++++++++++++++",
"@@@@@@@@@@~{',        ,'{~@@@@@@@@@@@@@@@@@@@@@@@@@@@@@@@@@@@@@@",
"#########=^<*'        '*<^=###################oooooooo##########",
"$$$$$$$$$457<{,      ,{<754$$$$$$$$$$$$$$$$$$$$------$$$$$$$$$$$",
"%%%%%%%bba8:^~+      +~^:8abb%%%%%%%%%%%%%%%%%bl____lb%%%%%%%%%%",
"%%%%%%%bba8:^~+      +~^:8abb%%%%%%%%%%%%%%%%j_ighhgi_j%%%%%%%%%",
"$$$$$$$$$457<{,      ,{<754$$$$$$$$$$$$$$$$--$(%3rr3%($--$$$$$$$",
"#########=^<*'        '*<^=################=>!p$%qq%$p!>=#######",
"@@@@@@@@@@~{',        ,'{~@@@@@@@@@@@@@@@@@**)^28bb82^)**@@@@@@@",
"+++++++++++,            ,++++++++++++++++++++'@158851@'+++++++++",
"..........                ................&&& {<7::7<{ &&&......",
"..........                ................&&& ]|6cc6|] &&&......",
"                                              ,'{~~{',          ",
"                                                ,++,            ",
"                                                                ",
"                                                                ",
"                                                                ",
"                                                                ",
"                                                                "};
